{
  "version": "1.1.6",
  "modules": [
    {
      "id": 1,
      "plugin": "Core",
      "version": "1.1.6",
      "model": "AudioInterface",
      "params": [],
      "data": {
        "audio": {
          "driver": 7,
          "deviceName": "Realtek ASIO",
          "offset": 0,
          "maxChannels": 8,
          "sampleRate": 44100,
          "blockSize": 512
        }
      },
      "pos": [
        56,
        0
      ]
    },
    {
      "id": 2,
      "plugin": "Fundamental",
      "version": "1.4.0",
      "model": "VCMixer",
      "params": [
        {
          "id": 0,
          "value": 1.13100028
        },
        {
          "id": 1,
          "value": 0.776404083
        },
        {
          "id": 2,
          "value": 0.704279006
        },
        {
          "id": 3,
          "value": 0.834537208
        },
        {
          "id": 4,
          "value": 1.0
        }
      ],
      "pos": [
        45,
        0
      ]
    },
    {
      "id": 4,
      "plugin": "Fundamental",
      "version": "1.4.0",
      "model": "VCF",
      "params": [
        {
          "id": 0,
          "value": 0.34149909
        },
        {
          "id": 1,
          "value": 0.24499999
        },
        {
          "id": 2,
          "value": 0.784500122
        },
        {
          "id": 3,
          "value": 0.0129996706
        },
        {
          "id": 4,
          "value": 0.436000019
        }
      ],
      "leftModuleId": 25,
      "pos": [
        20,
        1
      ]
    },
    {
      "id": 8,
      "plugin": "Core",
      "version": "1.1.6",
      "model": "Notes",
      "params": [],
      "leftModuleId": 29,
      "text": "patch instructions:\n\n1. Choose an audio driver and device in the AUDIO-8 module.\n\n2. Drag knobs up/down. Hold Ctrl (Cmd on Mac) while dragging to fine-tune. Right-click knobs to edit, or double-click to initialize.\n\n3. Drag ports to create and move 3ables. Stack multiple cables on outputs by holding Ctrl (Cmd on Mac) and dragging from an output.\n\n4. Right-click on an empty rack space to add new modules.",
      "pos": [
        72,
        0
      ]
    },
    {
      "id": 17,
      "plugin": "VCV-Prototype",
      "version": "1.2.0",
      "model": "Prototype",
      "params": [
        {
          "id": 0,
          "value": 0.0
        },
        {
          "id": 1,
          "value": 0.0
        },
        {
          "id": 2,
          "value": 0.0
        },
        {
          "id": 3,
          "value": 0.0
        },
        {
          "id": 4,
          "value": 0.0
        },
        {
          "id": 5,
          "value": 0.0
        },
        {
          "id": 6,
          "value": 0.0
        },
        {
          "id": 7,
          "value": 0.0
        },
        {
          "id": 8,
          "value": 0.0
        },
        {
          "id": 9,
          "value": 0.0
        },
        {
          "id": 10,
          "value": 0.0
        },
        {
          "id": 11,
          "value": 0.0
        }
      ],
      "data": {
        "path": "/Users/roryhoy/Documents/gitShow/gitShow2/module2.js",
        "script": "\nconfig.frameDivider = 1\n// set buffersize of module\nconfig.bufferSize = 16\n\nvar phase = 0\nvar amp = 1\nvar mix;\nvar bias_cv\n// clamp a number to within a range\nlet clampNumber = (num, a, b) => Math.max(Math.min(num, Math.max(a, b)), Math.min(a, b));\n\n// this is where the synthesis calculation occurs\nfunction process(block) {\n    // block.knobs[0] = 0.5\n\t// Knob ranges from -5 to 5 octaves\n\t// var pitch = block.knobs[0] * 10 - 5\n\t// Input follows 1V/oct standard\n    // pitch += block.inputs[0][0]\n    \n    // input 2 on the prototype module corresponds to the 2nd index of the block.inputs array, i.e. block.inputs[1]\n    amp = block.inputs[1][0]\n\n    // compare the amplitude of the two signal inputs\n    compare = [block.inputs[0][0], block.inputs[1][0]]\n    // get the max\n    max = Math.max(...compare)\n    // get the min\n    min = Math.min(...compare)\n\n    // the 1st knob on the prototype module will affect the biasing between input 1 or 2    \n    var bias = block.knobs[0] * 2 - 1\n    \n    // bias_cv += bias * Math.pow(2, block.inputs[2][0]);\n    if(bias < 0.){\n        mix = clampNumber( ((Math.abs(bias) * min) + (bias * max) * max * block.inputs[2][0]), -10., 10.)\n    } else if (bias > 0.){\n        mix = clampNumber( ((bias * max) + ((bias * -1) * min) * min * block.inputs[2][0]), -10., 10.)\n    }\n\n    var freq = 1\n\t//display(\"Freq: \" + freq.toFixed(3) + \" Hz\")\n\n\t// Set all samples in output buffer: this is where each sample is calculated, hence the for...loop. \n\tvar deltaPhase = config.frameDivider * block.sampleTime * freq\n\tfor (var i = 0; i < block.bufferSize; i++) {\n\t\t// Accumulate phase\n\t\tphase += deltaPhase\n\t\t// Wrap phase around range [0, 1]\n        phase %= 1\n        // this is like the console.log output of the prototype module. unfortunately it only displays a single concatenated string. \n        display(\"Logic Module: max, min, mix\" + mix)\n        \n\t\t// Convert phase to sine output\n        // block.outputs[0][i] = Math.sin(2 * Math.PI * phase) * 5 * amp\n        block.outputs[0][i] = max\n        block.outputs[1][i] = min\n        block.outputs[2][i] = mix\n\t}\n}\n"
      },
      "pos": [
        30,
        1
      ]
    },
    {
      "id": 25,
      "plugin": "Befaco",
      "version": "1.0.0",
      "model": "Rampage",
      "params": [
        {
          "id": 0,
          "value": 0.0
        },
        {
          "id": 1,
          "value": 0.0
        },
        {
          "id": 2,
          "value": 0.0
        },
        {
          "id": 3,
          "value": 0.0800002962
        },
        {
          "id": 4,
          "value": 0.0
        },
        {
          "id": 5,
          "value": 0.0
        },
        {
          "id": 6,
          "value": 0.448000014
        },
        {
          "id": 7,
          "value": 0.600000858
        },
        {
          "id": 8,
          "value": 0.436000109
        },
        {
          "id": 9,
          "value": 0.746999621
        },
        {
          "id": 10,
          "value": 0.0
        },
        {
          "id": 11,
          "value": 1.0
        },
        {
          "id": 12,
          "value": 0.490500122
        }
      ],
      "rightModuleId": 4,
      "pos": [
        2,
        1
      ]
    },
    {
      "id": 27,
      "plugin": "Fundamental",
      "version": "1.4.0",
      "model": "LFO",
      "params": [
        {
          "id": 0,
          "value": 0.0
        },
        {
          "id": 1,
          "value": 0.0
        },
        {
          "id": 2,
          "value": -2.33000588
        },
        {
          "id": 3,
          "value": 0.599999547
        },
        {
          "id": 4,
          "value": 0.597000062
        },
        {
          "id": 5,
          "value": 0.497549415
        },
        {
          "id": 6,
          "value": 0.0
        }
      ],
      "pos": [
        0,
        0
      ]
    },
    {
      "id": 29,
      "plugin": "VCV-Recorder",
      "version": "1.0.1",
      "model": "Recorder",
      "params": [
        {
          "id": 0,
          "value": 1.02999973
        },
        {
          "id": 1,
          "value": 0.0
        }
      ],
      "rightModuleId": 8,
      "data": {
        "format": "wav",
        "path": "C:\\Users\\Zhouyang Lu\\gitshow9/recording2.wav",
        "incrementPath": true,
        "sampleRate": 44100,
        "depth": 16,
        "bitRate": 320000
      },
      "pos": [
        67,
        0
      ]
    },
    {
      "id": 30,
      "plugin": "Fundamental",
      "version": "1.4.0",
      "model": "Scope",
      "params": [
        {
          "id": 0,
          "value": 0.0
        },
        {
          "id": 1,
          "value": 0.0
        },
        {
          "id": 2,
          "value": 0.0
        },
        {
          "id": 3,
          "value": 0.0
        },
        {
          "id": 4,
          "value": 14.0
        },
        {
          "id": 5,
          "value": 0.0
        },
        {
          "id": 6,
          "value": 0.0
        },
        {
          "id": 7,
          "value": 0.0
        }
      ],
      "data": {
        "lissajous": 0,
        "external": 0
      },
      "pos": [
        52,
        1
      ]
    },
    {
      "id": 32,
      "plugin": "Befaco",
      "version": "1.0.0",
      "model": "SpringReverb",
      "params": [
        {
          "id": 0,
          "value": 1.0
        },
        {
          "id": 1,
          "value": 1.0
        },
        {
          "id": 2,
          "value": 1.0
        },
        {
          "id": 3,
          "value": 0.505500197
        }
      ],
      "pos": [
        25,
        0
      ]
    },
    {
      "id": 40,
      "plugin": "Fundamental",
      "version": "1.4.0",
      "model": "Random",
      "params": [
        {
          "id": 0,
          "value": -2.24884939
        },
        {
          "id": 1,
          "value": 1.0
        },
        {
          "id": 2,
          "value": 1.0
        },
        {
          "id": 3,
          "value": 1.0
        }
      ],
      "rightModuleId": 42,
      "pos": [
        14,
        0
      ]
    },
    {
      "id": 42,
      "plugin": "Fundamental",
      "version": "1.4.0",
      "model": "Random",
      "params": [
        {
          "id": 0,
          "value": 3.65089464
        },
        {
          "id": 1,
          "value": 0.714000225
        },
        {
          "id": 2,
          "value": 1.0
        },
        {
          "id": 3,
          "value": 1.0
        }
      ],
      "leftModuleId": 40,
      "pos": [
        19,
        0
      ]
    },
    {
      "id": 43,
      "plugin": "Befaco",
      "version": "1.0.0",
      "model": "SpringReverb",
      "params": [
        {
          "id": 0,
          "value": 1.0
        },
        {
          "id": 1,
          "value": 1.0
        },
        {
          "id": 2,
          "value": 1.0
        },
        {
          "id": 3,
          "value": 0.505500197
        }
      ],
      "pos": [
        19,
        2
      ]
    },
    {
      "id": 44,
      "plugin": "Fundamental",
      "version": "1.4.0",
      "model": "Random",
      "params": [
        {
          "id": 0,
          "value": -7.09221792
        },
        {
          "id": 1,
          "value": 0.0720001757
        },
        {
          "id": 2,
          "value": 1.0
        },
        {
          "id": 3,
          "value": 1.0
        }
      ],
      "rightModuleId": 45,
      "pos": [
        2,
        2
      ]
    },
    {
      "id": 45,
      "plugin": "Fundamental",
      "version": "1.4.0",
      "model": "Random",
      "params": [
        {
          "id": 0,
          "value": -5.55748653
        },
        {
          "id": 1,
          "value": 0.0399999432
        },
        {
          "id": 2,
          "value": 1.0
        },
        {
          "id": 3,
          "value": 1.0
        }
      ],
      "leftModuleId": 44,
      "pos": [
        7,
        2
      ]
    }
  ],
  "cables": [
    {
      "id": 281,
      "outputModuleId": 2,
      "outputId": 0,
      "inputModuleId": 1,
      "inputId": 0,
      "color": "#0986ad"
    },
    {
      "id": 282,
      "outputModuleId": 2,
      "outputId": 0,
      "inputModuleId": 1,
      "inputId": 1,
      "color": "#c9b70e"
    },
    {
      "id": 334,
      "outputModuleId": 4,
      "outputId": 0,
      "inputModuleId": 25,
      "inputId": 5,
      "color": "#c9b70e"
    },
    {
      "id": 342,
      "outputModuleId": 2,
      "outputId": 2,
      "inputModuleId": 29,
      "inputId": 3,
      "color": "#c9b70e"
    },
    {
      "id": 327,
      "outputModuleId": 27,
      "outputId": 1,
      "inputModuleId": 4,
      "inputId": 3,
      "color": "#c91847"
    },
    {
      "id": 341,
      "outputModuleId": 2,
      "outputId": 1,
      "inputModuleId": 29,
      "inputId": 2,
      "color": "#0986ad"
    },
    {
      "id": 346,
      "outputModuleId": 2,
      "outputId": 1,
      "inputModuleId": 30,
      "inputId": 0,
      "color": "#c91847"
    },
    {
      "id": 347,
      "outputModuleId": 2,
      "outputId": 2,
      "inputModuleId": 30,
      "inputId": 1,
      "color": "#0986ad"
    },
    {
      "id": 354,
      "outputModuleId": 25,
      "outputId": 7,
      "inputModuleId": 32,
      "inputId": 3,
      "color": "#0986ad"
    },
    {
      "id": 355,
      "outputModuleId": 25,
      "outputId": 6,
      "inputModuleId": 32,
      "inputId": 2,
      "color": "#c9b70e"
    },
    {
      "id": 374,
      "outputModuleId": 4,
      "outputId": 1,
      "inputModuleId": 32,
      "inputId": 4,
      "color": "#c91847"
    },
    {
      "id": 318,
      "outputModuleId": 27,
      "outputId": 3,
      "inputModuleId": 25,
      "inputId": 2,
      "color": "#0c8e15"
    },
    {
      "id": 348,
      "outputModuleId": 27,
      "outputId": 0,
      "inputModuleId": 25,
      "inputId": 3,
      "color": "#c9b70e"
    },
    {
      "id": 381,
      "outputModuleId": 25,
      "outputId": 2,
      "inputModuleId": 40,
      "inputId": 0,
      "color": "#0986ad"
    },
    {
      "id": 386,
      "outputModuleId": 40,
      "outputId": 0,
      "inputModuleId": 32,
      "inputId": 1,
      "color": "#0c8e15"
    },
    {
      "id": 387,
      "outputModuleId": 40,
      "outputId": 0,
      "inputModuleId": 32,
      "inputId": 0,
      "color": "#c91847"
    },
    {
      "id": 359,
      "outputModuleId": 32,
      "outputId": 1,
      "inputModuleId": 17,
      "inputId": 1,
      "color": "#0986ad"
    },
    {
      "id": 391,
      "outputModuleId": 40,
      "outputId": 0,
      "inputModuleId": 4,
      "inputId": 1,
      "color": "#c9b70e"
    },
    {
      "id": 395,
      "outputModuleId": 25,
      "outputId": 3,
      "inputModuleId": 42,
      "inputId": 0,
      "color": "#c91847"
    },
    {
      "id": 396,
      "outputModuleId": 42,
      "outputId": 0,
      "inputModuleId": 4,
      "inputId": 0,
      "color": "#0986ad"
    },
    {
      "id": 358,
      "outputModuleId": 32,
      "outputId": 0,
      "inputModuleId": 17,
      "inputId": 0,
      "color": "#c91847"
    },
    {
      "id": 371,
      "outputModuleId": 17,
      "outputId": 1,
      "inputModuleId": 2,
      "inputId": 2,
      "color": "#0986ad"
    },
    {
      "id": 414,
      "outputModuleId": 17,
      "outputId": 3,
      "inputModuleId": 2,
      "inputId": 4,
      "color": "#0c8e15"
    },
    {
      "id": 415,
      "outputModuleId": 43,
      "outputId": 0,
      "inputModuleId": 17,
      "inputId": 2,
      "color": "#0986ad"
    },
    {
      "id": 416,
      "outputModuleId": 43,
      "outputId": 1,
      "inputModuleId": 17,
      "inputId": 3,
      "color": "#c9b70e"
    },
    {
      "id": 417,
      "outputModuleId": 25,
      "outputId": 8,
      "inputModuleId": 43,
      "inputId": 2,
      "color": "#0c8e15"
    },
    {
      "id": 418,
      "outputModuleId": 25,
      "outputId": 10,
      "inputModuleId": 43,
      "inputId": 3,
      "color": "#0986ad"
    },
    {
      "id": 420,
      "outputModuleId": 25,
      "outputId": 1,
      "inputModuleId": 45,
      "inputId": 0,
      "color": "#0c8e15"
    },
    {
      "id": 421,
      "outputModuleId": 44,
      "outputId": 0,
      "inputModuleId": 43,
      "inputId": 0,
      "color": "#0986ad"
    },
    {
      "id": 422,
      "outputModuleId": 44,
      "outputId": 0,
      "inputModuleId": 43,
      "inputId": 1,
      "color": "#c9b70e"
    },
    {
      "id": 419,
      "outputModuleId": 25,
      "outputId": 0,
      "inputModuleId": 44,
      "inputId": 0,
      "color": "#c9b70e"
    },
    {
      "id": 370,
      "outputModuleId": 17,
      "outputId": 0,
      "inputModuleId": 2,
      "inputId": 1,
      "color": "#c91847"
    },
    {
      "id": 390,
      "outputModuleId": 17,
      "outputId": 2,
      "inputModuleId": 2,
      "inputId": 3,
      "color": "#c9b70e"
    }
  ]
}