{
  "version": "1.1.6",
  "modules": [
    {
      "id": 1,
      "plugin": "Core",
      "version": "1.1.6",
      "model": "AudioInterface",
      "params": [],
      "leftModuleId": 46,
      "rightModuleId": 29,
      "data": {
        "audio": {
          "driver": 6,
          "deviceName": "Speakers (Conexant SmartAudio HD)",
          "offset": 0,
          "maxChannels": 8,
          "sampleRate": 8000,
          "blockSize": 512
        }
      },
      "pos": [
        129,
        0
      ]
    },
    {
      "id": 4,
      "plugin": "Fundamental",
      "version": "1.4.0",
      "model": "VCF",
      "params": [
        {
          "id": 0,
          "value": 0.834999323
        },
        {
          "id": 1,
          "value": 0.407000184
        },
        {
          "id": 2,
          "value": 0.542999625
        },
        {
          "id": 3,
          "value": -0.535000205
        },
        {
          "id": 4,
          "value": 0.711000085
        }
      ],
      "leftModuleId": 32,
      "rightModuleId": 17,
      "pos": [
        63,
        0
      ]
    },
    {
      "id": 17,
      "plugin": "VCV-Prototype",
      "version": "1.2.0",
      "model": "Prototype",
      "params": [
        {
          "id": 0,
          "value": 0.877000332
        },
        {
          "id": 1,
          "value": 0.997999489
        },
        {
          "id": 2,
          "value": 0.504000306
        },
        {
          "id": 3,
          "value": 1.0
        },
        {
          "id": 4,
          "value": 0.0
        },
        {
          "id": 5,
          "value": 0.0
        },
        {
          "id": 6,
          "value": 0.0
        },
        {
          "id": 7,
          "value": 0.0
        },
        {
          "id": 8,
          "value": 0.0
        },
        {
          "id": 9,
          "value": 0.0
        },
        {
          "id": 10,
          "value": 0.0
        },
        {
          "id": 11,
          "value": 0.0
        }
      ],
      "leftModuleId": 4,
      "rightModuleId": 47,
      "data": {
        "path": "/Users/roryhoy/Documents/gitShow/gitShow2/module2.js",
        "script": "\nconfig.frameDivider = 1\n// set buffersize of module\nconfig.bufferSize = 16\n\nvar phase = 0\nvar amp = 1\nvar mix;\nvar bias_cv\n// clamp a number to within a range\nlet clampNumber = (num, a, b) => Math.max(Math.min(num, Math.max(a, b)), Math.min(a, b));\n\n// this is where the synthesis calculation occurs\nfunction process(block) {\n    // block.knobs[0] = 0.5\n\t// Knob ranges from -5 to 5 octaves\n\t// var pitch = block.knobs[0] * 10 - 5\n\t// Input follows 1V/oct standard\n    // pitch += block.inputs[0][0]\n    \n    // input 2 on the prototype module corresponds to the 2nd index of the block.inputs array, i.e. block.inputs[1]\n    amp = block.inputs[1][0]\n\n    // compare the amplitude of the two signal inputs\n    compare = [block.inputs[0][0], block.inputs[1][0]]\n    // get the max\n    max = Math.max(...compare)\n    // get the min\n    min = Math.min(...compare)\n\n    // the 1st knob on the prototype module will affect the biasing between input 1 or 2    \n    var bias = block.knobs[0] * 2 - 1\n    \n    // bias_cv += bias * Math.pow(2, block.inputs[2][0]);\n    if(bias < 0.){\n        mix = clampNumber( ((Math.abs(bias) * min) + (bias * max) * max * block.inputs[2][0]), -10., 10.)\n    } else if (bias > 0.){\n        mix = clampNumber( ((bias * max) + ((bias * -1) * min) * min * block.inputs[2][0]), -10., 10.)\n    }\n\n    var freq = 1\n\t//display(\"Freq: \" + freq.toFixed(3) + \" Hz\")\n\n\t// Set all samples in output buffer: this is where each sample is calculated, hence the for...loop. \n\tvar deltaPhase = config.frameDivider * block.sampleTime * freq\n\tfor (var i = 0; i < block.bufferSize; i++) {\n\t\t// Accumulate phase\n\t\tphase += deltaPhase\n\t\t// Wrap phase around range [0, 1]\n        phase %= 1\n        // this is like the console.log output of the prototype module. unfortunately it only displays a single concatenated string. \n        display(\"Logic Module: max, min, mix\" + mix)\n        \n\t\t// Convert phase to sine output\n        // block.outputs[0][i] = Math.sin(2 * Math.PI * phase) * 5 * amp\n        block.outputs[0][i] = max\n        block.outputs[1][i] = min\n        block.outputs[2][i] = mix\n\t}\n}\n"
      },
      "pos": [
        71,
        0
      ]
    },
    {
      "id": 25,
      "plugin": "Befaco",
      "version": "1.0.0",
      "model": "Rampage",
      "params": [
        {
          "id": 0,
          "value": 1.0
        },
        {
          "id": 1,
          "value": 2.0
        },
        {
          "id": 2,
          "value": 0.0749996528
        },
        {
          "id": 3,
          "value": -0.0399995074
        },
        {
          "id": 4,
          "value": 0.0
        },
        {
          "id": 5,
          "value": 0.0
        },
        {
          "id": 6,
          "value": 0.289000034
        },
        {
          "id": 7,
          "value": 0.687000215
        },
        {
          "id": 8,
          "value": 0.187000126
        },
        {
          "id": 9,
          "value": 0.252000272
        },
        {
          "id": 10,
          "value": 1.0
        },
        {
          "id": 11,
          "value": 1.0
        },
        {
          "id": 12,
          "value": 0.502501249
        }
      ],
      "leftModuleId": 55,
      "rightModuleId": 43,
      "pos": [
        29,
        0
      ]
    },
    {
      "id": 27,
      "plugin": "Fundamental",
      "version": "1.4.0",
      "model": "LFO",
      "params": [
        {
          "id": 0,
          "value": 0.0
        },
        {
          "id": 1,
          "value": 0.0
        },
        {
          "id": 2,
          "value": 5.1130023
        },
        {
          "id": 3,
          "value": 0.599999547
        },
        {
          "id": 4,
          "value": 0.597000062
        },
        {
          "id": 5,
          "value": 0.497549415
        },
        {
          "id": 6,
          "value": 0.0
        }
      ],
      "rightModuleId": 71,
      "pos": [
        7,
        1
      ]
    },
    {
      "id": 29,
      "plugin": "VCV-Recorder",
      "version": "1.0.1",
      "model": "Recorder",
      "params": [
        {
          "id": 0,
          "value": 1.02999973
        },
        {
          "id": 1,
          "value": 0.0
        }
      ],
      "leftModuleId": 1,
      "rightModuleId": 30,
      "data": {
        "format": "wav",
        "path": "/Users/hoveidar/Downloads/recording.wav",
        "incrementPath": false,
        "sampleRate": 44100,
        "depth": 16,
        "bitRate": 320000
      },
      "pos": [
        139,
        0
      ]
    },
    {
      "id": 30,
      "plugin": "Fundamental",
      "version": "1.4.0",
      "model": "Scope",
      "params": [
        {
          "id": 0,
          "value": -1.0
        },
        {
          "id": 1,
          "value": -8.34000111
        },
        {
          "id": 2,
          "value": -1.0
        },
        {
          "id": 3,
          "value": 6.33000278
        },
        {
          "id": 4,
          "value": 13.3299885
        },
        {
          "id": 5,
          "value": 0.0
        },
        {
          "id": 6,
          "value": 0.0
        },
        {
          "id": 7,
          "value": 0.0
        }
      ],
      "leftModuleId": 29,
      "data": {
        "lissajous": 0,
        "external": 0
      },
      "pos": [
        144,
        0
      ]
    },
    {
      "id": 32,
      "plugin": "Befaco",
      "version": "1.0.0",
      "model": "SpringReverb",
      "params": [
        {
          "id": 0,
          "value": 1.0
        },
        {
          "id": 1,
          "value": 0.925000012
        },
        {
          "id": 2,
          "value": 0.441999495
        },
        {
          "id": 3,
          "value": 0.584500134
        }
      ],
      "leftModuleId": 43,
      "rightModuleId": 4,
      "pos": [
        55,
        0
      ]
    },
    {
      "id": 40,
      "plugin": "Fundamental",
      "version": "1.4.0",
      "model": "Random",
      "params": [
        {
          "id": 0,
          "value": 2.09623694
        },
        {
          "id": 1,
          "value": 0.622000158
        },
        {
          "id": 2,
          "value": 1.0
        },
        {
          "id": 3,
          "value": 1.0
        }
      ],
      "leftModuleId": 45,
      "rightModuleId": 42,
      "pos": [
        51,
        1
      ]
    },
    {
      "id": 42,
      "plugin": "Fundamental",
      "version": "1.4.0",
      "model": "Random",
      "params": [
        {
          "id": 0,
          "value": 0.0632188022
        },
        {
          "id": 1,
          "value": 0.437999904
        },
        {
          "id": 2,
          "value": 1.0
        },
        {
          "id": 3,
          "value": 1.0
        }
      ],
      "leftModuleId": 40,
      "rightModuleId": 56,
      "pos": [
        56,
        1
      ]
    },
    {
      "id": 43,
      "plugin": "Befaco",
      "version": "1.0.0",
      "model": "SpringReverb",
      "params": [
        {
          "id": 0,
          "value": 0.00150000001
        },
        {
          "id": 1,
          "value": 0.943000078
        },
        {
          "id": 2,
          "value": 0.467999965
        },
        {
          "id": 3,
          "value": 0.573000371
        }
      ],
      "leftModuleId": 25,
      "rightModuleId": 32,
      "pos": [
        47,
        0
      ]
    },
    {
      "id": 44,
      "plugin": "Fundamental",
      "version": "1.4.0",
      "model": "Random",
      "params": [
        {
          "id": 0,
          "value": 3.17254019
        },
        {
          "id": 1,
          "value": 0.846000016
        },
        {
          "id": 2,
          "value": 1.0
        },
        {
          "id": 3,
          "value": 1.0
        }
      ],
      "rightModuleId": 45,
      "pos": [
        41,
        1
      ]
    },
    {
      "id": 45,
      "plugin": "Fundamental",
      "version": "1.4.0",
      "model": "Random",
      "params": [
        {
          "id": 0,
          "value": 6.12241364
        },
        {
          "id": 1,
          "value": 0.621999979
        },
        {
          "id": 2,
          "value": 1.0
        },
        {
          "id": 3,
          "value": 1.0
        }
      ],
      "leftModuleId": 44,
      "rightModuleId": 40,
      "pos": [
        46,
        1
      ]
    },
    {
      "id": 46,
      "plugin": "squinkylabs-plug1",
      "version": "1.0.6",
      "model": "squinkylabs-mix8",
      "params": [
        {
          "id": 0,
          "value": 0.989499629
        },
        {
          "id": 1,
          "value": 0.0
        },
        {
          "id": 2,
          "value": 0.291000098
        },
        {
          "id": 3,
          "value": 0.421500325
        },
        {
          "id": 4,
          "value": 0.367500246
        },
        {
          "id": 5,
          "value": 0.978000104
        },
        {
          "id": 6,
          "value": 0.25150162
        },
        {
          "id": 7,
          "value": 0.351000041
        },
        {
          "id": 8,
          "value": 0.800000012
        },
        {
          "id": 9,
          "value": 0.800000012
        },
        {
          "id": 10,
          "value": 0.29399994
        },
        {
          "id": 11,
          "value": 0.113999888
        },
        {
          "id": 12,
          "value": -0.00999980886
        },
        {
          "id": 13,
          "value": -0.0899999887
        },
        {
          "id": 14,
          "value": 0.205000058
        },
        {
          "id": 15,
          "value": 0.276000142
        },
        {
          "id": 16,
          "value": -0.347999811
        },
        {
          "id": 17,
          "value": -0.465000093
        },
        {
          "id": 18,
          "value": 1.0
        },
        {
          "id": 19,
          "value": 1.0
        },
        {
          "id": 20,
          "value": 1.0
        },
        {
          "id": 21,
          "value": 1.0
        },
        {
          "id": 22,
          "value": 1.0
        },
        {
          "id": 23,
          "value": 1.0
        },
        {
          "id": 24,
          "value": 1.0
        },
        {
          "id": 25,
          "value": 1.0
        },
        {
          "id": 26,
          "value": 0.0
        },
        {
          "id": 27,
          "value": 0.0
        },
        {
          "id": 28,
          "value": 1.0
        },
        {
          "id": 29,
          "value": 0.0
        },
        {
          "id": 30,
          "value": 0.0
        },
        {
          "id": 31,
          "value": 0.0
        },
        {
          "id": 32,
          "value": 0.0
        },
        {
          "id": 33,
          "value": 0.0
        },
        {
          "id": 34,
          "value": 0.0
        },
        {
          "id": 35,
          "value": 0.0
        },
        {
          "id": 36,
          "value": 0.660999715
        },
        {
          "id": 37,
          "value": 0.0
        },
        {
          "id": 38,
          "value": 0.326999962
        },
        {
          "id": 39,
          "value": 0.369000107
        },
        {
          "id": 40,
          "value": 0.0
        },
        {
          "id": 41,
          "value": 0.0
        },
        {
          "id": 42,
          "value": 0.301000029
        }
      ],
      "leftModuleId": 69,
      "rightModuleId": 1,
      "pos": [
        103,
        0
      ]
    },
    {
      "id": 47,
      "plugin": "AudibleInstruments",
      "version": "1.0.0",
      "model": "Veils",
      "params": [
        {
          "id": 0,
          "value": 0.359500021
        },
        {
          "id": 1,
          "value": 0.564001024
        },
        {
          "id": 2,
          "value": 0.583500743
        },
        {
          "id": 3,
          "value": 1.0
        },
        {
          "id": 4,
          "value": 0.773499906
        },
        {
          "id": 5,
          "value": 1.0
        },
        {
          "id": 6,
          "value": 1.0
        },
        {
          "id": 7,
          "value": 1.0
        }
      ],
      "leftModuleId": 17,
      "rightModuleId": 69,
      "pos": [
        86,
        0
      ]
    },
    {
      "id": 50,
      "plugin": "DrumKit",
      "version": "1.1.4",
      "model": "Gnome",
      "params": [
        {
          "id": 0,
          "value": 135.655045
        },
        {
          "id": 1,
          "value": 0.600000024
        },
        {
          "id": 2,
          "value": 0.0
        },
        {
          "id": 3,
          "value": 0.0
        }
      ],
      "leftModuleId": 64,
      "rightModuleId": 55,
      "data": {
        "running": true
      },
      "pos": [
        8,
        0
      ]
    },
    {
      "id": 54,
      "plugin": "Fundamental",
      "version": "1.4.0",
      "model": "LFO",
      "params": [
        {
          "id": 0,
          "value": 0.0
        },
        {
          "id": 1,
          "value": 0.0
        },
        {
          "id": 2,
          "value": 1.0360049
        },
        {
          "id": 3,
          "value": 0.0
        },
        {
          "id": 4,
          "value": 0.0
        },
        {
          "id": 5,
          "value": 0.499999911
        },
        {
          "id": 6,
          "value": 0.0
        }
      ],
      "leftModuleId": 56,
      "rightModuleId": 67,
      "pos": [
        69,
        1
      ]
    },
    {
      "id": 55,
      "plugin": "AudibleInstruments",
      "version": "1.0.0",
      "model": "Plaits",
      "params": [
        {
          "id": 0,
          "value": 0.0
        },
        {
          "id": 1,
          "value": 0.0
        },
        {
          "id": 2,
          "value": -0.427999705
        },
        {
          "id": 3,
          "value": 0.549999177
        },
        {
          "id": 4,
          "value": 0.813499987
        },
        {
          "id": 5,
          "value": 1.0
        },
        {
          "id": 6,
          "value": -0.0180000495
        },
        {
          "id": 7,
          "value": 0.398999721
        },
        {
          "id": 8,
          "value": 1.0
        }
      ],
      "leftModuleId": 50,
      "rightModuleId": 25,
      "data": {
        "lowCpu": false,
        "model": 6,
        "lpgColor": 0.5,
        "decay": 0.5
      },
      "pos": [
        17,
        0
      ]
    },
    {
      "id": 56,
      "plugin": "Fundamental",
      "version": "1.4.0",
      "model": "8vert",
      "params": [
        {
          "id": 0,
          "value": 0.167999059
        },
        {
          "id": 1,
          "value": 0.0659999102
        },
        {
          "id": 2,
          "value": 0.462000132
        },
        {
          "id": 3,
          "value": -0.927000463
        },
        {
          "id": 4,
          "value": 0.651000082
        },
        {
          "id": 5,
          "value": -0.230000123
        },
        {
          "id": 6,
          "value": 0.729000151
        },
        {
          "id": 7,
          "value": 0.047000207
        }
      ],
      "leftModuleId": 42,
      "rightModuleId": 54,
      "pos": [
        61,
        1
      ]
    },
    {
      "id": 58,
      "plugin": "AudibleInstruments",
      "version": "1.0.0",
      "model": "Kinks",
      "params": [],
      "rightModuleId": 64,
      "pos": [
        0,
        0
      ]
    },
    {
      "id": 64,
      "plugin": "JW-Modules",
      "version": "1.0.9",
      "model": "Quantizer",
      "params": [
        {
          "id": 0,
          "value": 5.0
        },
        {
          "id": 1,
          "value": 11.0
        }
      ],
      "leftModuleId": 58,
      "rightModuleId": 50,
      "data": {},
      "pos": [
        4,
        0
      ]
    },
    {
      "id": 67,
      "plugin": "AudibleInstruments",
      "version": "1.0.0",
      "model": "Plaits",
      "params": [
        {
          "id": 0,
          "value": 0.0
        },
        {
          "id": 1,
          "value": 0.0
        },
        {
          "id": 2,
          "value": 2.04800034
        },
        {
          "id": 3,
          "value": 0.523500144
        },
        {
          "id": 4,
          "value": 0.586000383
        },
        {
          "id": 5,
          "value": 0.633999169
        },
        {
          "id": 6,
          "value": 0.0
        },
        {
          "id": 7,
          "value": 0.162
        },
        {
          "id": 8,
          "value": 0.228000104
        }
      ],
      "leftModuleId": 54,
      "rightModuleId": 68,
      "data": {
        "lowCpu": false,
        "model": 11,
        "lpgColor": 0.5,
        "decay": 0.5
      },
      "pos": [
        79,
        1
      ]
    },
    {
      "id": 68,
      "plugin": "Fundamental",
      "version": "1.4.0",
      "model": "VCF",
      "params": [
        {
          "id": 0,
          "value": 0.84850055
        },
        {
          "id": 1,
          "value": 0.5
        },
        {
          "id": 2,
          "value": 0.24149996
        },
        {
          "id": 3,
          "value": 0.0
        },
        {
          "id": 4,
          "value": 0.557999611
        }
      ],
      "leftModuleId": 67,
      "rightModuleId": 70,
      "pos": [
        91,
        1
      ]
    },
    {
      "id": 69,
      "plugin": "Fundamental",
      "version": "1.4.0",
      "model": "VCA",
      "params": [
        {
          "id": 0,
          "value": 0.764500856
        },
        {
          "id": 1,
          "value": 0.566500425
        }
      ],
      "leftModuleId": 47,
      "rightModuleId": 46,
      "pos": [
        98,
        0
      ]
    },
    {
      "id": 70,
      "plugin": "Fundamental",
      "version": "1.4.0",
      "model": "LFO2",
      "params": [
        {
          "id": 0,
          "value": 0.0
        },
        {
          "id": 1,
          "value": 1.0
        },
        {
          "id": 2,
          "value": -1.76299989
        },
        {
          "id": 3,
          "value": 0.283499986
        },
        {
          "id": 4,
          "value": 0.612500429
        }
      ],
      "leftModuleId": 68,
      "pos": [
        99,
        1
      ]
    },
    {
      "id": 71,
      "plugin": "AmalgamatedHarmonics",
      "version": "1.0.4",
      "model": "Arp32",
      "params": [
        {
          "id": 0,
          "value": 0.0
        },
        {
          "id": 1,
          "value": 13.0
        },
        {
          "id": 2,
          "value": 1.0
        },
        {
          "id": 3,
          "value": 1.0
        },
        {
          "id": 4,
          "value": 4.0
        }
      ],
      "leftModuleId": 27,
      "data": {
        "gateMode": 0,
        "repeatMode": false
      },
      "pos": [
        17,
        1
      ]
    }
  ],
  "cables": [
    {
      "id": 354,
      "outputModuleId": 25,
      "outputId": 7,
      "inputModuleId": 32,
      "inputId": 3,
      "color": "#0986ad"
    },
    {
      "id": 355,
      "outputModuleId": 25,
      "outputId": 6,
      "inputModuleId": 32,
      "inputId": 2,
      "color": "#c9b70e"
    },
    {
      "id": 386,
      "outputModuleId": 40,
      "outputId": 0,
      "inputModuleId": 32,
      "inputId": 1,
      "color": "#0c8e15"
    },
    {
      "id": 387,
      "outputModuleId": 40,
      "outputId": 0,
      "inputModuleId": 32,
      "inputId": 0,
      "color": "#c91847"
    },
    {
      "id": 395,
      "outputModuleId": 25,
      "outputId": 3,
      "inputModuleId": 42,
      "inputId": 0,
      "color": "#c91847"
    },
    {
      "id": 358,
      "outputModuleId": 32,
      "outputId": 0,
      "inputModuleId": 17,
      "inputId": 0,
      "color": "#c91847"
    },
    {
      "id": 417,
      "outputModuleId": 25,
      "outputId": 8,
      "inputModuleId": 43,
      "inputId": 2,
      "color": "#0c8e15"
    },
    {
      "id": 418,
      "outputModuleId": 25,
      "outputId": 10,
      "inputModuleId": 43,
      "inputId": 3,
      "color": "#0986ad"
    },
    {
      "id": 420,
      "outputModuleId": 25,
      "outputId": 1,
      "inputModuleId": 45,
      "inputId": 0,
      "color": "#0c8e15"
    },
    {
      "id": 421,
      "outputModuleId": 44,
      "outputId": 0,
      "inputModuleId": 43,
      "inputId": 0,
      "color": "#0986ad"
    },
    {
      "id": 422,
      "outputModuleId": 44,
      "outputId": 0,
      "inputModuleId": 43,
      "inputId": 1,
      "color": "#c9b70e"
    },
    {
      "id": 427,
      "outputModuleId": 46,
      "outputId": 0,
      "inputModuleId": 1,
      "inputId": 0,
      "color": "#c91847"
    },
    {
      "id": 428,
      "outputModuleId": 46,
      "outputId": 1,
      "inputModuleId": 1,
      "inputId": 1,
      "color": "#0986ad"
    },
    {
      "id": 433,
      "outputModuleId": 47,
      "outputId": 2,
      "inputModuleId": 46,
      "inputId": 2,
      "color": "#0c8e15"
    },
    {
      "id": 434,
      "outputModuleId": 47,
      "outputId": 3,
      "inputModuleId": 46,
      "inputId": 3,
      "color": "#c91847"
    },
    {
      "id": 447,
      "outputModuleId": 50,
      "outputId": 3,
      "inputModuleId": 25,
      "inputId": 3,
      "color": "#c91847"
    },
    {
      "id": 381,
      "outputModuleId": 25,
      "outputId": 2,
      "inputModuleId": 40,
      "inputId": 0,
      "color": "#0986ad"
    },
    {
      "id": 374,
      "outputModuleId": 4,
      "outputId": 1,
      "inputModuleId": 32,
      "inputId": 4,
      "color": "#c91847"
    },
    {
      "id": 432,
      "outputModuleId": 47,
      "outputId": 1,
      "inputModuleId": 46,
      "inputId": 1,
      "color": "#c9b70e"
    },
    {
      "id": 359,
      "outputModuleId": 32,
      "outputId": 1,
      "inputModuleId": 47,
      "inputId": 1,
      "color": "#0986ad"
    },
    {
      "id": 456,
      "outputModuleId": 55,
      "outputId": 0,
      "inputModuleId": 4,
      "inputId": 3,
      "color": "#0c8e15"
    },
    {
      "id": 457,
      "outputModuleId": 55,
      "outputId": 0,
      "inputModuleId": 42,
      "inputId": 1,
      "color": "#c91847"
    },
    {
      "id": 459,
      "outputModuleId": 45,
      "outputId": 0,
      "inputModuleId": 56,
      "inputId": 0,
      "color": "#c9b70e"
    },
    {
      "id": 462,
      "outputModuleId": 27,
      "outputId": 3,
      "inputModuleId": 55,
      "inputId": 2,
      "color": "#0986ad"
    },
    {
      "id": 467,
      "outputModuleId": 50,
      "outputId": 0,
      "inputModuleId": 58,
      "inputId": 4,
      "color": "#0c8e15"
    },
    {
      "id": 419,
      "outputModuleId": 25,
      "outputId": 0,
      "inputModuleId": 44,
      "inputId": 0,
      "color": "#c9b70e"
    },
    {
      "id": 416,
      "outputModuleId": 43,
      "outputId": 1,
      "inputModuleId": 47,
      "inputId": 3,
      "color": "#c9b70e"
    },
    {
      "id": 426,
      "outputModuleId": 17,
      "outputId": 0,
      "inputModuleId": 47,
      "inputId": 0,
      "color": "#c9b70e"
    },
    {
      "id": 390,
      "outputModuleId": 17,
      "outputId": 2,
      "inputModuleId": 47,
      "inputId": 2,
      "color": "#c9b70e"
    },
    {
      "id": 415,
      "outputModuleId": 43,
      "outputId": 0,
      "inputModuleId": 17,
      "inputId": 2,
      "color": "#0986ad"
    },
    {
      "id": 446,
      "outputModuleId": 50,
      "outputId": 2,
      "inputModuleId": 25,
      "inputId": 2,
      "color": "#0c8e15"
    },
    {
      "id": 480,
      "outputModuleId": 58,
      "outputId": 6,
      "inputModuleId": 64,
      "inputId": 2,
      "color": "#c9b70e"
    },
    {
      "id": 481,
      "outputModuleId": 64,
      "outputId": 0,
      "inputModuleId": 56,
      "inputId": 2,
      "color": "#0c8e15"
    },
    {
      "id": 483,
      "outputModuleId": 54,
      "outputId": 0,
      "inputModuleId": 58,
      "inputId": 0,
      "color": "#0986ad"
    },
    {
      "id": 492,
      "outputModuleId": 67,
      "outputId": 0,
      "inputModuleId": 68,
      "inputId": 3,
      "color": "#c9b70e"
    },
    {
      "id": 451,
      "outputModuleId": 4,
      "outputId": 0,
      "inputModuleId": 69,
      "inputId": 2,
      "color": "#c9b70e"
    },
    {
      "id": 494,
      "outputModuleId": 69,
      "outputId": 0,
      "inputModuleId": 46,
      "inputId": 4,
      "color": "#c91847"
    },
    {
      "id": 493,
      "outputModuleId": 68,
      "outputId": 0,
      "inputModuleId": 69,
      "inputId": 5,
      "color": "#0c8e15"
    },
    {
      "id": 495,
      "outputModuleId": 69,
      "outputId": 1,
      "inputModuleId": 46,
      "inputId": 5,
      "color": "#0986ad"
    },
    {
      "id": 496,
      "outputModuleId": 70,
      "outputId": 0,
      "inputModuleId": 56,
      "inputId": 1,
      "color": "#c9b70e"
    },
    {
      "id": 498,
      "outputModuleId": 56,
      "outputId": 1,
      "inputModuleId": 46,
      "inputId": 21,
      "color": "#c91847"
    },
    {
      "id": 499,
      "outputModuleId": 54,
      "outputId": 1,
      "inputModuleId": 70,
      "inputId": 0,
      "color": "#0986ad"
    },
    {
      "id": 502,
      "outputModuleId": 46,
      "outputId": 0,
      "inputModuleId": 29,
      "inputId": 2,
      "color": "#0986ad"
    },
    {
      "id": 503,
      "outputModuleId": 46,
      "outputId": 1,
      "inputModuleId": 29,
      "inputId": 3,
      "color": "#c9b70e"
    },
    {
      "id": 504,
      "outputModuleId": 46,
      "outputId": 0,
      "inputModuleId": 30,
      "inputId": 0,
      "color": "#0c8e15"
    },
    {
      "id": 505,
      "outputModuleId": 46,
      "outputId": 1,
      "inputModuleId": 30,
      "inputId": 1,
      "color": "#c91847"
    },
    {
      "id": 506,
      "outputModuleId": 70,
      "outputId": 0,
      "inputModuleId": 67,
      "inputId": 3,
      "color": "#0986ad"
    },
    {
      "id": 507,
      "outputModuleId": 71,
      "outputId": 0,
      "inputModuleId": 55,
      "inputId": 7,
      "color": "#c9b70e"
    },
    {
      "id": 508,
      "outputModuleId": 50,
      "outputId": 4,
      "inputModuleId": 71,
      "inputId": 0,
      "color": "#0c8e15"
    },
    {
      "id": 478,
      "outputModuleId": 42,
      "outputId": 0,
      "inputModuleId": 4,
      "inputId": 0,
      "color": "#c91847"
    },
    {
      "id": 512,
      "outputModuleId": 50,
      "outputId": 0,
      "inputModuleId": 56,
      "inputId": 4,
      "color": "#0c8e15"
    },
    {
      "id": 491,
      "outputModuleId": 50,
      "outputId": 0,
      "inputModuleId": 56,
      "inputId": 5,
      "color": "#0986ad"
    },
    {
      "id": 468,
      "outputModuleId": 56,
      "outputId": 2,
      "inputModuleId": 71,
      "inputId": 1,
      "color": "#0986ad"
    },
    {
      "id": 514,
      "outputModuleId": 56,
      "outputId": 3,
      "inputModuleId": 4,
      "inputId": 1,
      "color": "#0986ad"
    },
    {
      "id": 516,
      "outputModuleId": 54,
      "outputId": 0,
      "inputModuleId": 56,
      "inputId": 3,
      "color": "#0c8e15"
    },
    {
      "id": 453,
      "outputModuleId": 54,
      "outputId": 0,
      "inputModuleId": 56,
      "inputId": 7,
      "color": "#c91847"
    },
    {
      "id": 518,
      "outputModuleId": 54,
      "outputId": 2,
      "inputModuleId": 17,
      "inputId": 1,
      "color": "#c9b70e"
    },
    {
      "id": 517,
      "outputModuleId": 56,
      "outputId": 7,
      "inputModuleId": 46,
      "inputId": 20,
      "color": "#c91847"
    },
    {
      "id": 484,
      "outputModuleId": 58,
      "outputId": 0,
      "inputModuleId": 46,
      "inputId": 18,
      "color": "#c9b70e"
    },
    {
      "id": 431,
      "outputModuleId": 47,
      "outputId": 0,
      "inputModuleId": 46,
      "inputId": 0,
      "color": "#0986ad"
    },
    {
      "id": 519,
      "outputModuleId": 58,
      "outputId": 2,
      "inputModuleId": 46,
      "inputId": 19,
      "color": "#0c8e15"
    },
    {
      "id": 520,
      "outputModuleId": 43,
      "outputId": 1,
      "inputModuleId": 46,
      "inputId": 16,
      "color": "#c91847"
    }
  ]
}