{
  "version": "1.1.6",
  "modules": [
    {
      "id": 1,
      "plugin": "Core",
      "version": "1.1.6",
      "model": "AudioInterface",
      "params": [],
      "leftModuleId": 73,
      "rightModuleId": 29,
      "data": {
        "audio": {
          "driver": 5,
          "deviceName": "Apple Inc.: Built-in Output",
          "offset": 0,
          "maxChannels": 8,
          "sampleRate": 44100,
          "blockSize": 512
        }
      },
      "pos": [
        43,
        0
      ]
    },
    {
      "id": 29,
      "plugin": "VCV-Recorder",
      "version": "1.0.1",
      "model": "Recorder",
      "params": [
        {
          "id": 0,
          "value": 1.02999973
        },
        {
          "id": 1,
          "value": 0.0
        }
      ],
      "leftModuleId": 1,
      "rightModuleId": 30,
      "data": {
        "format": "wav",
        "path": "F:\\Dropbox\\Grad School\\YorkU\\VSL\\gitshow9/recording.wav",
        "incrementPath": false,
        "sampleRate": 44100,
        "depth": 16,
        "bitRate": 320000
      },
      "pos": [
        53,
        0
      ]
    },
    {
      "id": 30,
      "plugin": "Fundamental",
      "version": "1.4.0",
      "model": "Scope",
      "params": [
        {
          "id": 0,
          "value": -1.0
        },
        {
          "id": 1,
          "value": -8.34000111
        },
        {
          "id": 2,
          "value": -1.0
        },
        {
          "id": 3,
          "value": 6.33000278
        },
        {
          "id": 4,
          "value": 13.3299885
        },
        {
          "id": 5,
          "value": 0.0
        },
        {
          "id": 6,
          "value": 0.0
        },
        {
          "id": 7,
          "value": 0.0
        }
      ],
      "leftModuleId": 29,
      "data": {
        "lissajous": 0,
        "external": 0
      },
      "pos": [
        58,
        0
      ]
    },
    {
      "id": 54,
      "plugin": "Fundamental",
      "version": "1.4.0",
      "model": "LFO",
      "params": [
        {
          "id": 0,
          "value": 0.0
        },
        {
          "id": 1,
          "value": 1.0
        },
        {
          "id": 2,
          "value": -3.52699232
        },
        {
          "id": 3,
          "value": 0.0
        },
        {
          "id": 4,
          "value": 0.0
        },
        {
          "id": 5,
          "value": 0.499999911
        },
        {
          "id": 6,
          "value": 0.0
        }
      ],
      "leftModuleId": 72,
      "rightModuleId": 69,
      "pos": [
        10,
        0
      ]
    },
    {
      "id": 68,
      "plugin": "Fundamental",
      "version": "1.4.0",
      "model": "VCF",
      "params": [
        {
          "id": 0,
          "value": 0.674500167
        },
        {
          "id": 1,
          "value": 0.5
        },
        {
          "id": 2,
          "value": 0.24149996
        },
        {
          "id": 3,
          "value": 0.0
        },
        {
          "id": 4,
          "value": 0.557999611
        }
      ],
      "leftModuleId": 69,
      "rightModuleId": 73,
      "pos": [
        25,
        0
      ]
    },
    {
      "id": 69,
      "plugin": "Fundamental",
      "version": "1.4.0",
      "model": "VCA",
      "params": [
        {
          "id": 0,
          "value": 1.0
        },
        {
          "id": 1,
          "value": 0.907000124
        }
      ],
      "leftModuleId": 54,
      "rightModuleId": 68,
      "pos": [
        20,
        0
      ]
    },
    {
      "id": 72,
      "plugin": "Fundamental",
      "version": "1.4.0",
      "model": "VCO",
      "params": [
        {
          "id": 0,
          "value": 1.0
        },
        {
          "id": 1,
          "value": 1.0
        },
        {
          "id": 2,
          "value": -14.0939913
        },
        {
          "id": 3,
          "value": 0.0
        },
        {
          "id": 4,
          "value": 0.0
        },
        {
          "id": 5,
          "value": 0.5
        },
        {
          "id": 6,
          "value": 0.0
        }
      ],
      "rightModuleId": 54,
      "pos": [
        0,
        0
      ]
    },
    {
      "id": 73,
      "plugin": "Fundamental",
      "version": "1.4.0",
      "model": "VCMixer",
      "params": [
        {
          "id": 0,
          "value": 0.0
        },
        {
          "id": 1,
          "value": 1.0
        },
        {
          "id": 2,
          "value": 1.0
        },
        {
          "id": 3,
          "value": 1.0
        },
        {
          "id": 4,
          "value": 1.0
        }
      ],
      "leftModuleId": 68,
      "rightModuleId": 1,
      "pos": [
        33,
        0
      ]
    }
  ],
  "cables": [
    {
      "id": 518,
      "outputModuleId": 72,
      "outputId": 2,
      "inputModuleId": 69,
      "inputId": 5,
      "color": "#c9b70e"
    },
    {
      "id": 519,
      "outputModuleId": 69,
      "outputId": 1,
      "inputModuleId": 68,
      "inputId": 3,
      "color": "#0c8e15"
    },
    {
      "id": 520,
      "outputModuleId": 68,
      "outputId": 0,
      "inputModuleId": 73,
      "inputId": 1,
      "color": "#0986ad"
    },
    {
      "id": 521,
      "outputModuleId": 73,
      "outputId": 0,
      "inputModuleId": 1,
      "inputId": 0,
      "color": "#c9b70e"
    },
    {
      "id": 522,
      "outputModuleId": 73,
      "outputId": 0,
      "inputModuleId": 1,
      "inputId": 1,
      "color": "#0c8e15"
    },
    {
      "id": 523,
      "outputModuleId": 54,
      "outputId": 0,
      "inputModuleId": 69,
      "inputId": 3,
      "color": "#c91847"
    }
  ]
}